<svg width="27" height="26" viewBox="0 0 27 26" fill="none" xmlns="http://www.w3.org/2000/svg">
<path d="M10.8125 16C10.5417 16 10.3021 16.1042 10.0938 16.3125C9.90625 16.5 9.8125 16.7292 9.8125 17V20.3438C9.8125 20.6146 9.90625 20.8542 10.0938 21.0625C10.3021 21.25 10.5417 21.3438 10.8125 21.3438C11.1042 21.3438 11.3438 21.25 11.5312 21.0625C11.7188 20.8542 11.8125 20.6146 11.8125 20.3438V17C11.8125 16.7292 11.7188 16.5 11.5312 16.3125C11.3438 16.1042 11.1042 16 10.8125 16ZM16.1562 16C15.8854 16 15.6458 16.1042 15.4375 16.3125C15.25 16.5 15.1562 16.7292 15.1562 17V20.3438C15.1562 20.6146 15.25 20.8542 15.4375 21.0625C15.6458 21.25 15.8854 21.3438 16.1562 21.3438C16.4271 21.3438 16.6562 21.25 16.8438 21.0625C17.0521 20.8542 17.1562 20.6146 17.1562 20.3438V17C17.1562 16.7292 17.0521 16.5 16.8438 16.3125C16.6562 16.1042 16.4271 16 16.1562 16ZM24.8438 7.34375C25.3854 7.34375 25.8542 7.54167 26.25 7.9375C26.6458 8.3125 26.8438 8.78125 26.8438 9.34375V12C26.8438 12.5417 26.6562 13.0104 26.2812 13.4062C25.9062 13.7812 25.4479 13.9792 24.9062 14L21.9375 23.9062V23.9375C21.8125 24.3333 21.5729 24.6667 21.2188 24.9375C20.8854 25.2083 20.4896 25.3438 20.0312 25.3438H7.03125C6.59375 25.3438 6.19792 25.2083 5.84375 24.9375C5.48958 24.6667 5.25 24.3229 5.125 23.9062L2.15625 14C1.59375 14 1.11458 13.8021 0.71875 13.4062C0.34375 13.0104 0.15625 12.5417 0.15625 12V9.34375C0.15625 8.78125 0.354167 8.3125 0.75 7.9375C1.14583 7.54167 1.61458 7.34375 2.15625 7.34375H5.71875L10.3125 0.4375C10.3958 0.3125 10.5104 0.208333 10.6562 0.125C10.8021 0.0416667 10.9688 0 11.1562 0C11.4271 0 11.6562 0.104167 11.8438 0.3125C12.0521 0.5 12.1562 0.729167 12.1562 1C12.1562 1.10417 12.1354 1.20833 12.0938 1.3125C12.0729 1.39583 12.0312 1.47917 11.9688 1.5625L8.125 7.34375H18.8438L14.9688 1.5625H15C14.9375 1.47917 14.8854 1.39583 14.8438 1.3125C14.8229 1.20833 14.8125 1.10417 14.8125 1C14.8125 0.729167 14.9062 0.5 15.0938 0.3125C15.3021 0.104167 15.5417 0 15.8125 0C15.9792 0 16.1354 0.0416667 16.2812 0.125C16.4271 0.208333 16.5521 0.3125 16.6562 0.4375L21.25 7.34375H24.8438ZM2.15625 9.34375V12H24.8438V9.34375H2.15625ZM20.0312 23.3438L22.8438 14H4.25L7.03125 23.3438H20.0312Z" fill="#004620"/>
</svg>
