<svg width="20" height="20" viewBox="0 0 20 20" fill="none"
     xmlns="http://www.w3.org/2000/svg">
  <path
    d="M9.89951 0C4.43226 0 0 4.43226 0 9.89951C0 15.3668 4.43226 19.799 9.89951 19.799C15.3668 19.799 19.799 15.3668 19.799 9.89951C19.799 4.43226 15.3668 0 9.89951 0ZM9.89951 18.3141C7.82129 18.3109 5.81832 17.5359 4.27914 16.1395C2.73995 14.7432 1.77425 12.8249 1.56936 10.7568C1.36447 8.68867 1.93499 6.61818 3.17027 4.94692C4.40554 3.27566 6.2175 2.12275 8.2547 1.71183C10.2919 1.30091 12.4091 1.66127 14.1956 2.72301C15.9822 3.78475 17.3107 5.47218 17.9235 7.458C18.5363 9.44382 18.3898 11.5865 17.5122 13.4703C16.6347 15.3542 15.0887 16.845 13.1743 17.6535C12.1382 18.0918 11.0244 18.3165 9.89951 18.3141Z"
    fill="black"/>
  <path
    transform ="rotate(-45 10 10)"
    id="center"
    d="M9.37476 4.17726C9.30574 4.24611 9.25099 4.32792 9.21367 4.41798C9.17634 4.50804 9.15716 4.60459 9.15724 4.70208L9.15724 9.15689L4.70243 9.15689C4.60492 9.15689 4.50837 9.17609 4.41828 9.21341C4.32819 9.25072 4.24634 9.30542 4.17739 9.37437C4.10844 9.44332 4.05374 9.52517 4.01643 9.61526C3.97911 9.70535 3.95991 9.8019 3.95991 9.89941C3.95991 9.99692 3.97911 10.0935 4.01643 10.1836C4.05374 10.2737 4.10844 10.3555 4.17739 10.4245C4.24634 10.4934 4.32819 10.5481 4.41828 10.5854C4.50837 10.6227 4.60492 10.6419 4.70243 10.6419L9.15724 10.6419L9.15724 15.0967C9.15724 15.2937 9.23547 15.4825 9.37472 15.6218C9.51397 15.761 9.70283 15.8393 9.89976 15.8393C10.0967 15.8393 10.2856 15.761 10.4248 15.6218C10.5641 15.4825 10.6423 15.2937 10.6423 15.0967L10.6423 10.6419L15.0971 10.6419C15.294 10.6419 15.4829 10.5637 15.6221 10.4245C15.7614 10.2852 15.8396 10.0963 15.8396 9.89941C15.8396 9.70248 15.7614 9.51362 15.6221 9.37437C15.4829 9.23512 15.294 9.15689 15.0971 9.15689L10.6423 9.15689L10.6423 4.70208C10.6423 4.55524 10.5987 4.4117 10.5171 4.28962C10.4355 4.16753 10.3195 4.07239 10.1839 4.01621C10.0482 3.96003 9.89891 3.94535 9.75489 3.97402C9.61087 4.00268 9.47859 4.07341 9.37476 4.17726Z"
    fill="black"/>
</svg>
